<?xml version="1.0" encoding="UTF-8"?>
<svg viewBox="0 0 716.37 387.58" xmlns="http://www.w3.org/2000/svg">
 <g fill-rule="evenodd">
  <g stroke="#000">
   <path d="m718.33 387.9l-2.464-65.853-112.33-29.561-271.57 36.941 215.5 59.415 170.86-0.942z" fill="#7e996b" opacity=".876"/>
   <path d="m121.52 80.957l60.645-26.466 71.875 65.59 2.2461 186.41-161.72-12.658-4.4922-138.08 31.445-74.796z" fill="#e5e582" stroke-width=".816"/>
  </g>
  <rect transform="matrix(.99995 -.0095401 .0088616 .99996 0 0)" x="372.42" y="185.58" width="29.173" height="78.101" rx=".25493" ry="3.0903" fill="#926539" stroke="#201409" stroke-linejoin="round" stroke-width="1.236"/>
  <g stroke="#000">
   <path d="m255.16 304.19l28.076-2.3014v-35.672l90.967-6.9042-1.123-78.248h30.322l0.9854 84.98 54.711 0.324 17.874 16.947 119.59-7.8929-3.3691-117.37-338.04-28.768v174.91z" fill="#e9cf79" stroke-width=".816"/>
   <path d="m429.86 234.49c-1.7918 27.198-0.47577 33.231-0.47577 33.231" fill="none" stroke-width="1.732"/>
   <path d="m599.6 274.75l0.9854 23.649-222.69 10.839-2.9561-45.326 2.9561 1.9707-88.682 6.8975 1.9707 40.4-4.9268 1.9707-4.9268-12.81 3.9414 0.9854-0.9854-36.458 90.653-5.9122 65.034 4.9268 18.722-1.9707 23.649 17.736 117.26-6.8975z" fill="#8a7771"/>
   <path d="m497.85 267c-1.7918 27.198-0.47577 33.231-0.47577 33.231" fill="none" stroke-width="1.732"/>
  </g>
  <path d="m223.74 78.765c-103.12 27.87-104.51 37.625-104.51 37.625l-27.87 69.675-2.787-40.412 26.477-82.217 73.856-32.051 34.838 47.379z" fill="#a09d6a"/>
  <g stroke="#000">
   <g stroke-width=".408">
    <path d="m75.476 163.81l4.4922-17.261 32.568-78.248 70.752-34.521-1.123 13.808 1.123 10.356-59.522 24.165-31.445 72.494v10.356l-16.846-1.1507z" fill="#625915"/>
    <path d="m260.78 106.27v26.466h-19.092l1.1231-14.959-61.768-59.837 2.2461-23.014 77.49 71.344z" fill="#c28e30" opacity=".962"/>
    <path d="m258.53 106.27v24.165l99.952 6.9042 1.123 21.863 33.692-9.2056 197.66 16.11-25.83 6.9042-3.3692-18.411 34.815 4.6028 26.953-3.4521-3.3691-6.9042-178.57-20.713-129.15-26.466-53.906 4.6028z" fill="#4a3021"/>
   </g>
   <g stroke-width=".816">
    <path d="m78.846 164.96l2.2461-18.411 30.322-72.494 70.752-33.37 76.367 74.796 113.43 10.356 21.338 19.562 195.41 17.261-17.969-16.11 52.783 5.7535-86.475-57.535-81.983-39.124-262.79-54.083-84.229 66.741-38.184 97.81 8.9844-1.1507z" fill="#bf9275"/>
    <path d="m183.29 39.532l11.23-39.124-88.721 72.494 77.49-33.37z" fill="#af7854"/>
   </g>
  </g>
  <path d="m291.1 177.62l1.123 54.083h47.168v-54.083h-48.291z" fill="#fafae9" stroke="#0b0707" stroke-width="3.75"/>
  <g stroke="#000">
   <path d="m195.64 128.14l-2.2461-54.083-23.584 6.9042 1.1231 52.932 24.707-5.7535z" fill="#efefed" stroke-width="2.5"/>
   <path d="m170.97 81.868l20.939-6.1585 2.4634 51.485-22.17 5.1732-1.2317-50.5z" fill="#b7d6ea"/>
   <g stroke-width="2.5">
    <path d="m143.98 138.49l-17.969 4.6028v-44.878l19.092-6.9042-1.123 47.179z" fill="#efefed"/>
    <path d="m172.06 186.82l21.338-2.3015 1.1231 51.782h-22.461v-49.48z" fill="#f3f3ec"/>
   </g>
   <path d="m172.8 188.15l20.011-2.8194 1.0784 50.381-21.089-0.1226v-47.439z" fill="#b7d6ea" stroke-width=".984"/>
   <path d="m142.86 191.42l1.1231 43.727h-16.846l-0.6967-41.636 16.419-2.0902z" fill="#f3f3ec" stroke-width="2.5"/>
   <g fill="#d3e5e6" stroke-width=".816">
    <path d="m365.22 85.56l19.092 18.411 20.215 1.1507-20.215-17.261-19.092-2.3014z"/>
    <path d="m446.08 95.916l15.723 16.11 21.338 2.3014-21.338-16.11-15.723-2.3014z"/>
   </g>
   <path d="m482.92 152.61l-122.59-117.04" fill="none" stroke-width="1.023"/>
   <path d="m374.21 23.422l15.723 2.3014 1.123 33.37h-15.723l-1.123-35.672z" fill="#ddc671" stroke-width=".816"/>
   <path d="m360.73 158.05l204.4 14.959 23.584-9.2056-24.707-3.4521v3.4522l-171.83-12.658-31.445 6.9042z" fill="#2b1a1a" stroke-width=".408"/>
  </g>
  <g fill="#fafae9" stroke="#0b0707">
   <path d="m447.86 183.85l0.8372 45.577 35.166-0.043v-45.578l-36.003 0.0439z" stroke-width="2.972"/>
   <path d="m548.47 186.02l0.5815 39.236 24.421-0.127v-39.239l-25.002 0.1301z" stroke-width="2.298"/>
  </g>
  <g stroke="#000">
   <path d="m364.1 26.874l8.9844-3.4521 1.123 35.672-12.354-9.2057 2.2461-23.014z" fill="#ffe183" stroke-width=".408"/>
   <g fill="none" stroke-width="1.732">
    <path d="m481.59 254.19c-1.7918 27.198-0.47577 33.231-0.47577 33.231"/>
    <path d="m463.86 239.91c-1.7918 27.198-0.47577 33.231-0.47577 33.231"/>
    <path d="m453.02 233.01c-1.7918 27.198-0.47577 33.231-0.47577 33.231"/>
   </g>
   <path d="m373.95 259.97v11.824l24.634 1.9707 57.151-5.9122 38.429 35.473 16.751-0.9854-55.18-46.312-54.195 4.9268-27.59-0.9854z" fill="#a78440"/>
   <path d="m398.82 236.25c-1.7918 28.147-0.47577 34.39-0.47577 34.39" fill="none" stroke-width="1.762"/>
   <path d="m398.67 260.96v11.824l-23.815-1.9707 0.1742-9.7392 23.641-0.1144z" fill="#6b5636" stroke-width=".913"/>
   <g fill="none">
    <path d="m374.68 235.47c-1.7918 27.198-0.47577 33.231-0.47577 33.231" stroke-width="1.732"/>
    <path d="m374.94 236.32h23.649l55.18-3.9414 49.268 38.429" stroke-width="1.5"/>
   </g>
   <path d="m377.89 295.44l1.9707 50.253 160.61-15.766v-11.824l-162.58-22.663z" fill="#d9d5c3"/>
   <path d="m441.94 349.64l178.35-18.722-79.814-0.9854-159.63 16.751 61.092 2.9561z" fill="#afafac"/>
   <path d="m294.14 313.18l145.83 34.488-15.766 2.9561v1.9707l-137.95-34.488v-8.8682l7.8829 3.9415z" fill="#928d8b"/>
   <path d="m95.094 294.46z" fill="none"/>
   <path d="m92.138 326.98l167.51 16.751 29.561-6.8975-0.9854-35.473-33.502 1.9707-163.57-8.8682 0.9854 32.517z" fill="#695d58"/>
   <path d="m256.69 304.31l0.9854 38.429" fill="none"/>
   <path d="m439.85 347.79l0.1232 2.4634-15.642 2.5865-0.1232-2.4634 15.642-2.5865z" fill="#928d8b"/>
   <path d="m425.19 350.62l-140.91-36.458 0.9854 0.9854" fill="none"/>
   <g fill="#928d8b">
    <path d="m538.79 320.25c-162.03-24.475-162.03-23.863-162.03-23.863l0.3104-1.5297 9.312-2.1415 158.61 22.945" stroke-width=".885"/>
    <path d="m537.63 317.75l0.3484 2.787 7.6642-2.787-0.3484-2.4386-7.6642 2.4386z"/>
   </g>
   <path d="m538.01 317.4l-159.04-22.532" fill="none" stroke-width=".868"/>
   <path d="m288.22 319.09l263.98 69.488-398.97-1.4978-115.29-38.429-37.444-12.81 91.638-15.766v6.8975l167.51 16.751 29.561-5.9122-0.9854-18.722z" fill="#7e996b"/>
   <path d="m289.95 273.27l84.248-6.8975 4.9268 67.004-87.943-20.692-1.2317-39.414z" fill="#f7f7f1"/>
   <g fill="none">
    <path d="m289.95 273.52c1.478 0.98535 1.9707 1.478 1.9707 1.478l83.755-6.4048 4.4341 64.048-2.217 1.2317-84.987-20.692-1.2317-38.429 0.2463-0.2463"/>
    <path d="m292.17 281.57l84.002-7.4702" stroke-width="1.08"/>
    <path d="m292.16 288.9l84.251-7.8539" stroke-width="1.128"/>
    <path d="m292.66 295.98c85.473-8.9617 85.225-8.9617 85.225-8.9617" stroke-width="1.188"/>
    <path d="m293.15 302.42l84.987-8.5369" stroke-width="1.351"/>
    <path d="m293.4 309.12l84.981-7.65" stroke-width="1.494"/>
    <path d="m377.17 308.14l-74.924 6.8736h-0.24091" stroke-width="1.262"/>
    <path d="m378.14 314.1c-55.672 5.2972-55.672 5.7899-55.672 5.7899" stroke-width="1.06"/>
    <path d="m378.14 320.32c-38.922 3.2024-38.675 3.2024-33.502 4.6804"/>
    <path d="m379.37 325.74c-22.417 1.7244-19.214 2.4634-22.663 1.9707"/>
   </g>
  </g>
  <g fill="#76512b" stroke-linejoin="round" stroke-width="1.262">
   <rect transform="matrix(.97117 -.23837 .019445 .99981 0 0)" x="182.32" y="122.45" width="3.8212" height="52.041" rx=".27446" ry="26.021"/>
   <rect transform="matrix(.94395 -.3301 -.035826 .99936 0 0)" x="187.15" y="159.14" width="23.498" height="3.3326" rx=".27209" ry="1.6663"/>
   <rect transform="matrix(.94395 -.3301 -.035826 .99936 0 0)" x="188.67" y="176.77" width="23.498" height="3.3326" rx=".27209" ry="1.6663"/>
  </g>
  <path d="m126.98 98.599l17.102-6.1776-0.8136 45.801-16.08 4.2827-0.209-43.906z" fill="#b7d6ea" stroke="#000" stroke-width=".946"/>
  <g fill="#76512b" stroke-linejoin="round" stroke-width="1.262">
   <rect transform="matrix(.97928 -.20253 -.010064 .99995 0 0)" x="136.85" y="124.06" width="3.8156" height="44.146" rx=".27428" ry="22.073"/>
   <rect transform="matrix(.93263 -.36083 -.071974 .99741 0 0)" x="148.49" y="164.66" width="18.528" height="3.3287" rx=".2706" ry="1.6644"/>
   <rect transform="matrix(.92652 -.37625 -.030856 .99952 0 0)" x="142.79" y="181.42" width="18.759" height="3.0318" rx=".27106" ry="1.5159"/>
   <rect transform="matrix(.998 -.063179 .020894 .99978 0 0)" x="176.55" y="197.99" width="3.7185" height="48.432" rx=".26672" ry="24.216"/>
   <rect transform="matrix(.99441 -.10562 -.032148 .99948 0 0)" x="181.18" y="220.48" width="19.83" height="3.3017" rx=".25576" ry="1.6508"/>
   <rect transform="matrix(.99773 -.067349 -.032788 .99946 0 0)" x="180.95" y="229.43" width="20.134" height="3.2978" rx=".25135" ry="1.6489"/>
  </g>
  <path d="m127.39 194.05l14.204-2.4409 0.7655 43.616-14.97-0.1061v-41.069z" fill="#b7d6ea" stroke="#000" stroke-width=".771"/>
  <g fill="#76512b" stroke-linejoin="round" stroke-width="1.262">
   <rect transform="matrix(.99745 -.071413 .018476 .99983 0 0)" x="129.37" y="202.63" width="2.8314" height="41.682" rx=".2667" ry="20.841"/>
   <rect transform="matrix(.99307 -.11754 -.028852 .99958 0 0)" x="134.58" y="221.51" width="15.111" height="2.7995" rx=".25572" ry="1.3998"/>
   <rect transform="matrix(.99718 -.075007 -.029428 .99957 0 0)" x="134.34" y="229.25" width="15.331" height="2.7962" rx=".25134" ry="1.3981"/>
  </g>
  <path d="m292.33 178.37l45.539-0.015 0.9363 52.385-45.736-0.1185-0.739-52.252z" fill="#b7d6ea" stroke="#000" stroke-width="1.447"/>
  <g fill="#76512b" stroke-linejoin="round" stroke-width="1.262">
   <rect transform="matrix(.9984 -.056635 .023317 .99973 0 0)" x="309.42" y="196.81" width="4.4005" height="51.381" rx=".2667" ry="25.691"/>
   <rect transform="matrix(.99995 -.010101 -.079919 .9968 0 0)" x="308.95" y="197.28" width="45.254" height="3.0477" rx=".25494" ry="1.5239"/>
   <rect transform="matrix(.99991 .013236 -.073665 .99728 0 0)" x="308.6" y="206.83" width="45.447" height="3.3204" rx=".25069" ry="1.6602"/>
  </g>
  <path d="m448.82 184.42l34.305-0.0127 0.7054 44.211-34.453-0.1-0.5567-44.098z" fill="#b7d6ea" stroke="#000" stroke-width="1.154"/>
  <g fill="#76512b" stroke-linejoin="round" stroke-width="1.262">
   <rect transform="matrix(.99787 -.065182 .02025 .9998 0 0)" x="461.36" y="214.98" width="3.2391" height="43.526" rx=".26656" ry="21.763"/>
   <rect transform="matrix(.99993 -.011632 -.069457 .99758 0 0)" x="463.88" y="202.86" width="33.294" height="2.5799" rx=".25493" ry="1.2899"/>
   <rect transform="matrix(.99988 .015241 -.064015 .99795 0 0)" x="463.04" y="204.59" width="33.436" height="2.811" rx=".25068" ry="1.4055"/>
  </g>
  <path d="m549.39 187.51l22.605-0.0106 0.4647 37.053-22.703-0.0838-0.3669-36.959z" fill="#b7d6ea" stroke="#000" stroke-width=".858"/>
  <g fill="#76512b" stroke-linejoin="round" stroke-width="1.262">
   <rect transform="matrix(.99787 -.065182 .02025 .9998 0 0)" x="461.36" y="214.98" width="3.2391" height="43.526" rx=".26656" ry="21.763"/>
   <rect transform="matrix(.99993 -.011632 -.069457 .99758 0 0)" x="463.88" y="202.86" width="33.294" height="2.5799" rx=".25493" ry="1.2899"/>
   <rect transform="matrix(.99988 .015241 -.064015 .99795 0 0)" x="463.04" y="204.59" width="33.436" height="2.811" rx=".25068" ry="1.4055"/>
   <rect transform="matrix(.99666 -.08163 .016151 .99987 0 0)" x="557.87" y="233.6" width="2.149" height="36.161" rx=".26647" ry="18.08"/>
   <rect transform="matrix(.99989 -.014584 -.055444 .99846 0 0)" x="561.38" y="206.6" width="22.063" height="2.1416" rx=".25493" ry="1.0708"/>
   <rect transform="matrix(.99982 .019109 -.051093 .99869 0 0)" x="560.24" y="199.49" width="22.158" height="2.3338" rx=".25068" ry="1.1669"/>
  </g>
  <path d="m540.76 329.42l5.3998-1.3935-0.3484-10.626-5.574 2.4386 0.5226 9.5804z" fill="#bdbbb0" stroke="#000"/>
  <g stroke-linejoin="round" stroke-width="1.262">
   <path d="m397.76 203.83a8.4481 13.935 0 1 1 -16.896 0 8.4481 13.935 0 1 1 16.896 0z" fill="#b7d6ea"/>
   <path d="m397.67 204.01a8.4481 13.935 0 1 1 -16.896 0 8.4481 13.935 0 1 1 16.896 0z" fill="none" stroke="#6f4811"/>
  </g>
  <path d="m381.56 199.65l15.503-0.52252" fill="#92591d" stroke="#774e11"/>
  <path d="m381.56 208.36l16.025-0.69672" fill="none" stroke="#714211"/>
  <path d="m385.56 191.81l0.17419 24.909" fill="#805120" stroke="#75471e"/>
  <path d="m393.4 192.16l-0.17419 24.038" fill="#76512b" stroke="#825222"/>
 </g>
</svg>
